<?xml version="1.0" encoding="utf-8"?>
<!-- Generator: Adobe Illustrator 25.0.0, SVG Export Plug-In . SVG Version: 6.00 Build 0)  -->
<svg version="1.1" id="Layer_1" xmlns="http://www.w3.org/2000/svg" xmlns:xlink="http://www.w3.org/1999/xlink" x="0px" y="0px"
	 viewBox="0 0 1106 217" style="enable-background:new 0 0 1106 217;" xml:space="preserve">
<style type="text/css">
	.st0{fill:#FFFFFF;}
	.st1{fill:#F06052;}
	.st2{enable-background:new    ;}
</style>
<g>
	<path class="st0" d="M556.1,210.1c-182.4,0-364.7,0-547.1,0.1c-2.4,0-3.3-0.3-3.3-3.1C5.8,141,5.8,74.9,5.7,8.8c0-2.6,0.7-3,3.1-3
		C190.2,5.9,371.6,5.9,553,5.9c1.4,0,3.1-0.9,3.1,2.2C556.1,75.4,556.1,142.8,556.1,210.1z M281,26.1c-83.7,0-167.4,0-251.1-0.1
		c-3.1,0-3.8,0.7-3.8,3.8c0.1,52.1,0.1,104.2,0,156.3c0,3.1,0.7,3.8,3.8,3.8c167.4-0.1,334.9-0.1,502.3,0c3.1,0,3.8-0.7,3.8-3.8
		c-0.1-52-0.1-104,0-156c0-3.4-0.8-4.1-4.2-4.1C448.2,26.1,364.6,26.1,281,26.1z"/>
	<path class="st0" d="M89.1,154.9c3.4-8.5,6.6-16.6,9.8-24.7c9.5-24.2,19.1-48.5,28.5-72.8c0.9-2.4,2.2-3,4.5-3
		c6.5,0.1,13,0.1,19.4,0c1.7,0,2.6,0.4,3.3,2.2c12.4,31.9,24.9,63.8,37.5,95.6c0.9,2.3,0.5,2.7-1.8,2.7c-6.8-0.1-13.7-0.1-20.5,0
		c-1.8,0-2.7-0.5-3.2-2.2c-1-3.3-2.4-6.5-3.4-9.8c-0.5-1.6-1.2-2.2-2.9-2.2c-13,0.1-25.9,0.1-38.9,0c-1.7,0-2.4,0.7-2.9,2.1
		c-1.1,3.2-2.4,6.2-3.4,9.4c-0.6,1.9-1.4,2.7-3.6,2.7C104.1,154.8,96.9,154.9,89.1,154.9z M127.6,119.5c8.1,0,16.1-0.1,24.2,0.1
		c2.6,0,2.8-0.7,1.9-2.9c-3.7-9.9-7.2-20-10.9-29.9c-0.5-1.4-0.6-3-1.9-4c-4.5,11.9-8.9,23.8-13.3,35.7
		C127.5,118.6,127.6,118.8,127.6,119.5z"/>
	<path class="st0" d="M224.6,113.2c7.3-9.3,14.1-17.7,20.6-26.2c1.4-1.8,2.8-2.3,4.9-2.3c8.1,0.1,16.2,0,24.9,0
		c-1,1.4-1.7,2.3-2.5,3.2c-7.5,8.8-15,17.6-22.6,26.3c-1.4,1.6-1.4,2.6-0.1,4.3c8.1,10.9,16.2,22,24.2,33c0.7,0.9,1.3,1.9,2.3,3.3
		c-7.5,0-14.6-0.4-21.5,0.1c-5.4,0.4-8.5-1.4-11.4-6c-5.7-9.2-12.1-18-18.3-27c-1.2,0.7-0.6,1.7-0.6,2.5c0,9-0.2,18.1,0,27.1
		c0.1,2.9-0.9,3.5-3.5,3.4c-5.4-0.2-10.9-0.2-16.3,0c-2.9,0.1-3.8-0.5-3.8-3.7c0.1-29.8,0.1-59.5,0.1-89.3c0-6.9,0-6.9,7-6.9
		c4.4,0,8.8,0.2,13.2-0.1c2.9-0.2,3.4,0.9,3.3,3.5c-0.1,16.8-0.1,33.6-0.1,50.4C224.6,110,224.6,111.1,224.6,113.2z"/>
	<path class="st0" d="M398.9,82.2c19.5,0.2,34.5,11.7,38.1,29.5c4.5,22.3-10.4,42.7-33,45c-18.4,1.9-34-5.9-40.8-21
		c-9.5-21.1,0.1-48.7,28.9-52.8C394.3,82.6,396.6,82.5,398.9,82.2z M399,133.3c7.6,0,13.8-6.1,13.9-13.5c0-7.5-6.4-13.9-14-13.8
		c-7.7,0-14.4,6.6-14.3,14C384.7,127.5,391.1,133.4,399,133.3z"/>
	<path class="st0" d="M278.9,84.7c8.4,0,16.2,0.1,24.1,0c2,0,2.1,1.4,2.5,2.7c4.4,12.5,8.7,25,13.1,37.5c0.2,0.5,0.4,1,0.9,2.2
		c3.3-9.5,6.4-18.4,9.5-27.3c1.4-4.1,3-8.2,4.3-12.4c0.6-1.9,1.5-2.8,3.6-2.7c6.5,0.2,13,0.1,19.4,0c1.8,0,2.8-0.1,1.9,2.4
		c-8.7,22-17.4,44-26,66c-0.5,1.4-1.3,1.9-2.8,1.9c-6.9-0.1-13.9-0.1-20.8,0c-2.2,0.1-2.7-1.2-3.3-2.8c-6.5-16.5-13-33-19.5-49.6
		C283.6,96.8,281.3,91.1,278.9,84.7z"/>
	<path class="st1" d="M474.2,142.6c0,7.8-6.5,13.9-14.4,13.8c-8-0.2-14.2-6.3-14.1-14c0.1-7.6,6.8-13.9,14.5-13.8
		C468.1,128.6,474.2,134.7,474.2,142.6z"/>
</g>
<g>
	<g class="st2">
		<path class="st0" d="M635.7,53c11.1,0,18.8,1.2,26.1,7.8c8,7.3,10.1,17.3,10.1,24.6c0,4-0.6,15-8.2,22.8c-5.5,5.7-13.6,9-25.1,9
			h-12.5v37.7h-19.3V53H635.7z M626.2,100h7.9c3.7,0,8.5,0,12.6-3.2c3.6-2.9,5.3-7.5,5.3-11.9c0-5.7-2.7-9.5-5.5-11.6
			c-4-2.9-9-3.2-13.6-3.2h-6.7V100z"/>
		<path class="st0" d="M741.4,95.9c6.4,6,10.8,15.1,10.8,26c0,10.7-4.4,19.9-10.8,25.8c-5.5,5.2-13.8,9.3-25.9,9.3
			c-12.2,0-20.5-4.1-26-9.3c-6.4-6-10.8-15.1-10.8-25.8c0-10.8,4.4-20,10.8-26c5.5-5.2,13.8-9.3,26-9.3
			C727.6,86.6,735.9,90.7,741.4,95.9z M733.6,121.9c0-10.4-7.7-18.8-18.1-18.8c-10.4,0-18.1,8.4-18.1,18.8
			c0,10.1,7.6,18.6,18.1,18.6C726,140.5,733.6,132,733.6,121.9z"/>
		<path class="st0" d="M766.2,88.7h18.1v9.9c2.8-5.7,6.7-8.4,8-9.2c2.8-1.8,6.4-2.9,10.7-2.9c3.1,0,5.6,0.8,7.7,1.5l-2.4,17.4
			c-2.4-1.7-4.7-2.4-8.5-2.4c-3.4,0-8.5,0.8-12,5.3c-3.4,4.4-3.6,10.1-3.6,14.7v31.8h-18.1V88.7z"/>
		<path class="st0" d="M842.3,104.6v50.3h-18.1v-50.3H817V88.7h7.1V66.1h18.1v22.6h12.5v15.9H842.3z"/>
		<path class="st0" d="M913.4,88.7h18.1v66.2h-18.1v-8.6c-6.5,9.6-15.1,10.7-19.7,10.7c-19.7,0-32.8-15.9-32.8-35.3
			c0-19.6,12.9-35.1,31.9-35.1c4.9,0,14.5,0.9,20.6,10.7V88.7z M879.6,121.7c0,10.5,7.4,18.8,17.8,18.8s17.8-8.3,17.8-18.8
			s-7.4-18.6-17.8-18.6S879.6,111.2,879.6,121.7z"/>
		<path class="st0" d="M966.8,43.5v111.4h-18.1V43.5H966.8z"/>
		<path class="st0" d="M1019,104.5c-4.3-4.1-8.6-4.4-10.5-4.4c-4.3,0-7,2.1-7,5.3c0,1.7,0.7,4.3,5.8,6l4.3,1.4
			c5,1.7,12.6,4.3,16.3,9.5c1.9,2.8,3.3,6.7,3.3,11c0,6-1.9,11.9-7.1,16.8c-5.2,4.9-11.4,7-19.3,7c-13.3,0-20.9-6.6-24.9-11
			l9.5-11.3c3.6,4.3,8.9,7.6,14.2,7.6c5,0,8.9-2.6,8.9-7.2c0-4.1-3.3-5.8-5.6-6.7l-4.2-1.5c-4.6-1.7-9.9-3.8-13.8-7.9
			c-3-3.2-4.9-7.3-4.9-12.7c0-6.4,3-11.8,6.7-15c5-4.1,11.6-4.7,16.8-4.7c4.7,0,12.3,0.6,20.5,7L1019,104.5z"/>
	</g>
</g>
</svg>
