<?xml version="1.0" encoding="utf-8"?>
<!-- Generator: Adobe Illustrator 25.0.1, SVG Export Plug-In . SVG Version: 6.00 Build 0)  -->
<svg version="1.1" id="Layer_1" xmlns="http://www.w3.org/2000/svg" xmlns:xlink="http://www.w3.org/1999/xlink" x="0px" y="0px"
	 viewBox="0 0 50 50" style="enable-background:new 0 0 50 50;" xml:space="preserve">
<style type="text/css">
	.st0{fill:#8D5545;}
	.st1{fill:#F2F2F2;}
</style>
<circle class="st0" cx="25" cy="25" r="25"/>
<g>
	<path class="st1" d="M12.6,38.4c-0.5,0-0.8-0.4-0.8-0.8c0,0,0,0,0,0c0-0.5,0.4-0.8,0.8-0.8h25.1c0.5,0,0.8,0.4,0.8,0.8
		c0,0.5-0.4,0.8-0.8,0.8H12.6L12.6,38.4z"/>
	<path class="st1" d="M30.4,23.7c0-1.6,1.3-2.9,2.9-2.9h2.1c1.6,0,2.9,1.3,2.9,2.9v8.4l0,0c0,1.6-1.3,2.9-2.9,2.9h-2.1l0,0
		c-1.6,0-2.9-1.3-2.9-2.9L30.4,23.7z M32,32.1C32,32.1,32,32.1,32,32.1c0,0.7,0.6,1.2,1.3,1.2h2.1c0.7,0,1.2-0.6,1.2-1.2v-8.4l0,0
		c0-0.7-0.6-1.2-1.2-1.2h-2.2c-0.7,0-1.2,0.6-1.2,1.2V32.1z"/>
	<path class="st1" d="M20.7,19.1C20.7,19.1,20.7,19.1,20.7,19.1c0-1.6,1.3-2.9,2.9-2.9h2.1c0,0,0,0,0,0c1.6,0,2.9,1.3,2.9,2.9l0,13
		l0,0c0,1.6-1.3,2.9-2.9,2.9h-2.1l0,0c-1.6,0-2.9-1.3-2.9-2.9L20.7,19.1z M22.4,32.1c0,0.7,0.6,1.2,1.2,1.2h2.1
		c0.7,0,1.2-0.6,1.2-1.2l0-13c0-0.7-0.6-1.2-1.2-1.2h-2.1c-0.7,0-1.2,0.5-1.2,1.2L22.4,32.1z"/>
	<path class="st1" d="M16.6,17.9c-0.2,0-0.4-0.2-0.3-0.4V15c-0.1,0-0.2,0-0.3,0h-1c-0.2,0-0.3-0.2-0.3-0.3c0-0.2,0.1-0.4,0.3-0.5h1
		c0.3,0,0.9,0,0.9,0.8v2.5C17,17.7,16.9,17.9,16.6,17.9C16.6,17.9,16.6,17.9,16.6,17.9z"/>
	<path class="st1" d="M16.4,18.7c-0.2-0.2-0.2-0.4,0-0.6c0.2-0.2,0.4-0.2,0.6,0c0.2,0.2,0.2,0.4,0,0.6c-0.1,0.1-0.2,0.1-0.3,0.1
		C16.6,18.8,16.5,18.8,16.4,18.7z"/>
	<path class="st1" d="M11.6,14.5L11.6,14.5c0-1.6,1.3-2.9,2.9-2.9h2.1c1.6,0,2.9,1.3,2.9,2.9l0,17.6l0,0c0,1.6-1.3,2.9-2.9,2.9h-2.1
		c0,0,0,0,0,0c-1.6,0-2.9-1.3-2.9-2.9V14.5z M13.2,32.1c0,0.7,0.6,1.2,1.2,1.2h2.1c0.7,0,1.2-0.6,1.2-1.2l0-17.6
		c0-0.7-0.6-1.2-1.2-1.2h-2.1c-0.7,0-1.2,0.6-1.2,1.2L13.2,32.1z"/>
</g>
</svg>
