<svg id="Layer_1" data-name="Layer 1" xmlns="http://www.w3.org/2000/svg" viewBox="0 0 50 50"><defs><style>.cls-1{fill:#689676;}.cls-2{fill:#fff;}</style></defs><circle class="cls-1" cx="25" cy="25" r="25"/><path class="cls-2" d="M25.06,24.19a4.41,4.41,0,1,1,0-8.82h0a4.41,4.41,0,0,1,0,8.82Zm0-6.9A2.47,2.47,0,0,0,23.3,18a2.49,2.49,0,0,0,0,3.52,2.49,2.49,0,0,0,3.52,0,2.49,2.49,0,0,0-1.76-4.25Z"/><path class="cls-2" d="M31.4,18.79a.48.48,0,0,1-.46-.37c0-.15-.06-.27-.08-.35a1.56,1.56,0,0,0-.06-.24.48.48,0,0,1,.25-.63.49.49,0,0,1,.63.25,2.32,2.32,0,0,1,.12.42c0,.08,0,.18.07.33a.49.49,0,0,1-.36.58Z"/><path class="cls-2" d="M30.54,16.72a.47.47,0,0,1-.41-.22,6.27,6.27,0,0,0-4.45-2.86.47.47,0,0,1-.41-.54.49.49,0,0,1,.54-.41A7.2,7.2,0,0,1,30.94,16a.47.47,0,0,1-.4.73Z"/><path class="cls-2" d="M25.05,40.71c-.8,0-2.33-.37-3.57-2.81C20,35.07,14.7,23.3,14.7,19.59a10.3,10.3,0,1,1,20.6,0c0,3.67-5.33,15.59-6.69,18.31C27.7,39.71,26.44,40.71,25.05,40.71ZM25,11.21a8.39,8.39,0,0,0-8.38,8.38c0,2.92,4.66,13.68,6.57,17.44.56,1.12,1.24,1.76,1.86,1.76s1.3-.66,1.85-1.75c1.66-3.33,6.48-14.49,6.48-17.45A8.39,8.39,0,0,0,25,11.21Z"/></svg>