<svg id="Layer_1" data-name="Layer 1" xmlns="http://www.w3.org/2000/svg" viewBox="0 0 50 50"><defs><style>.cls-1{fill:#4d4d62;}.cls-2{fill:#f2f2f2;}</style></defs><circle class="cls-1" cx="25" cy="25" r="25"/><path class="cls-2" d="M33.16,18.82V19A9,9,0,0,1,33,20.64l3.79.75V39.24l-6.35-1.9V26a18.05,18.05,0,0,1-1.81,2v9.4L21.37,41V24.2l.48-.24a12.27,12.27,0,0,1-.75-1.65l-.64.32-9.07-4.54V39l9.07,4.53L29.54,39l9.07,2.72V19.91ZM13.21,21l6.35,3.17V41l-6.35-3.17Z"/><path class="cls-2" d="M27.27,16.21a2.93,2.93,0,0,1,.88-5.79h0a2.93,2.93,0,0,1-.88,5.79ZM28,11.69a1.57,1.57,0,0,0-1.18.31,1.65,1.65,0,0,0-.35,2.31,1.51,1.51,0,0,0,2.19.31,1.66,1.66,0,0,0,.35-2.3A1.6,1.6,0,0,0,28,11.69Z"/><path class="cls-2" d="M32,13.3A.32.32,0,0,1,31.7,13c0-.11,0-.19,0-.24a1,1,0,0,0,0-.16.31.31,0,0,1,.22-.39h0a.32.32,0,0,1,.39.23h0a1.41,1.41,0,0,1,0,.28l0,.22a.33.33,0,0,1-.29.35H32Z"/><path class="cls-2" d="M31.61,11.86a.28.28,0,0,1-.24-.18,4.16,4.16,0,0,0-2.63-2.32.31.31,0,0,1-.21-.4h0a.32.32,0,0,1,.39-.21,4.77,4.77,0,0,1,3,2.68.3.3,0,0,1-.14.41h0A.35.35,0,0,1,31.61,11.86Z"/><path class="cls-2" d="M25.61,27c-.53-.08-1.5-.48-2.06-2.2-.66-2-3-10.25-2.6-12.69A6.83,6.83,0,0,1,34.48,14a1.2,1.2,0,0,1,0,.2c-.36,2.4-5.05,9.68-6.22,11.32A2.83,2.83,0,0,1,25.61,27ZM28.54,7.69a5.57,5.57,0,0,0-6.34,4.66c-.3,1.91,1.68,9.44,2.55,12.09.25.79.62,1.3,1,1.33s.91-.29,1.43-.94c1.42-2,5.71-8.84,6-10.78A5.56,5.56,0,0,0,28.57,7.7Z"/></svg>