<svg id="Layer_1" data-name="Layer 1" xmlns="http://www.w3.org/2000/svg" viewBox="0 0 50 50"><defs><style>.cls-1{fill:#a06262;}.cls-2{fill:#fff;}</style></defs><circle class="cls-1" cx="25" cy="25" r="25"/><path class="cls-2" d="M24.35,21.36a3,3,0,0,1-3,3H14a3,3,0,0,1-3-3V14a3,3,0,0,1,3-3h7.4a3,3,0,0,1,3,3ZM22.63,14a1.26,1.26,0,0,0-1.27-1.26H14A1.25,1.25,0,0,0,12.7,14v7.4A1.26,1.26,0,0,0,14,22.63h7.4a1.27,1.27,0,0,0,1.27-1.27Z"/><path class="cls-2" d="M14.42,17.88a.44.44,0,0,1-.43-.43v-.78a2.09,2.09,0,0,1,1.9-2.25h2.69a.44.44,0,0,1,0,.87H15.89c-.68,0-1,.74-1,1.38v.78A.44.44,0,0,1,14.42,17.88Z"/><path class="cls-2" d="M14.26,19.36a.46.46,0,0,1-.31-.13.47.47,0,0,1-.12-.3.48.48,0,0,1,.12-.31.46.46,0,0,1,.62,0,.48.48,0,0,1,.12.31.47.47,0,0,1-.12.3A.48.48,0,0,1,14.26,19.36Z"/><path class="cls-2" d="M39,21.36a3,3,0,0,1-3,3h-7.4a3,3,0,0,1-3-3V14a3,3,0,0,1,3-3H36a3,3,0,0,1,3,3ZM37.3,14A1.25,1.25,0,0,0,36,12.7h-7.4A1.26,1.26,0,0,0,27.37,14v7.4a1.27,1.27,0,0,0,1.27,1.27H36a1.26,1.26,0,0,0,1.26-1.27Z"/><path class="cls-2" d="M24.35,36a3,3,0,0,1-3,3H14a3,3,0,0,1-3-3v-7.4a3,3,0,0,1,3-3h7.4a3,3,0,0,1,3,3Zm-1.72-7.4a1.27,1.27,0,0,0-1.27-1.27H14a1.26,1.26,0,0,0-1.26,1.27V36A1.25,1.25,0,0,0,14,37.3h7.4A1.26,1.26,0,0,0,22.63,36Z"/><path class="cls-2" d="M39,36a3,3,0,0,1-3,3h-7.4a3,3,0,0,1-3-3v-7.4a3,3,0,0,1,3-3H36a3,3,0,0,1,3,3Zm-1.73-7.4A1.26,1.26,0,0,0,36,27.37h-7.4a1.27,1.27,0,0,0-1.27,1.27V36a1.26,1.26,0,0,0,1.27,1.26H36A1.25,1.25,0,0,0,37.3,36Z"/></svg>