<svg id="Layer_1" data-name="Layer 1" xmlns="http://www.w3.org/2000/svg" viewBox="0 0 50 50"><defs><style>.cls-1{fill:#cdaf70;}.cls-2{fill:#fff;}</style></defs><circle class="cls-1" cx="25" cy="25" r="25"/><path class="cls-2" d="M25.6,37.24a5.3,5.3,0,0,1-5.11-3.17.91.91,0,1,1,1.69-.69,3.52,3.52,0,0,0,3.43,2,3.88,3.88,0,0,0,3.67-3.78V28.19c0-.52.08-1.09.6-1.09H33.1c.35,0,1,0,1.22-.48A1.64,1.64,0,0,0,33.9,25l-7.15-9.36a2.14,2.14,0,0,0-3.51-.11L16.11,25.1c-.47.6-.63,1.14-.44,1.54s.62.46,1.23.46h4.5a.95.95,0,0,1,0,1.89H16.9A3,3,0,0,1,14,27.46a3.33,3.33,0,0,1,.63-3.54l7.13-9.54a4,4,0,0,1,3.16-1.62,4.33,4.33,0,0,1,3.34,1.75l7.15,9.38A3.31,3.31,0,0,1,36,27.45,3,3,0,0,1,33.1,29H31.17v2.58A5.76,5.76,0,0,1,25.6,37.24Z"/><path class="cls-2" d="M21,31.31a1,1,0,0,1-.67-.27.94.94,0,0,1-.27-.67.92.92,0,0,1,.27-.67,1,1,0,0,1,1.33,0,1,1,0,0,1,.28.67.91.91,0,0,1-.28.66A.94.94,0,0,1,21,31.31Z"/></svg>