<svg id="Layer_1" data-name="Layer 1" xmlns="http://www.w3.org/2000/svg" viewBox="0 0 50 50"><defs><style>.cls-1{fill:#a3b476;}.cls-2{fill:#f2f2f2;}</style></defs><circle class="cls-1" cx="25" cy="25" r="25"/><path class="cls-2" d="M37.45,38.37H12.39a.85.85,0,0,1-.84-.84.84.84,0,0,1,.84-.83H37.45a.83.83,0,0,1,.84.83A.84.84,0,0,1,37.45,38.37Z"/><path class="cls-2" d="M19.65,32.13a2.9,2.9,0,0,1-2.9,2.9H14.61a2.9,2.9,0,0,1-2.9-2.9V23.72a2.9,2.9,0,0,1,2.9-2.9h2.14a2.9,2.9,0,0,1,2.9,2.9ZM18,23.72a1.23,1.23,0,0,0-1.23-1.23H14.61a1.23,1.23,0,0,0-1.23,1.23v8.41a1.23,1.23,0,0,0,1.23,1.23h2.14A1.23,1.23,0,0,0,18,32.13Z"/><path class="cls-2" d="M29.26,32.13a2.9,2.9,0,0,1-2.9,2.9H24.22a2.9,2.9,0,0,1-2.9-2.9v-13a2.89,2.89,0,0,1,2.9-2.89h2.14a2.89,2.89,0,0,1,2.9,2.89Zm-1.67-13a1.23,1.23,0,0,0-1.23-1.22H24.22A1.23,1.23,0,0,0,23,19.12v13a1.23,1.23,0,0,0,1.23,1.23h2.14a1.23,1.23,0,0,0,1.23-1.23Z"/><path class="cls-2" d="M33.36,17.9c-.24,0-.34-.19-.34-.42V15c0-.82.67-.82.94-.82h1A.42.42,0,0,1,35,15H34a1.38,1.38,0,0,0-.27,0l0,2.49A.38.38,0,0,1,33.36,17.9Z"/><path class="cls-2" d="M33.28,18.81a.47.47,0,0,1-.3-.12.43.43,0,0,1,0-.6.44.44,0,0,1,.59,0,.44.44,0,0,1,0,.6A.47.47,0,0,1,33.28,18.81Z"/><path class="cls-2" d="M38.45,32.13a2.9,2.9,0,0,1-2.9,2.9H33.41a2.9,2.9,0,0,1-2.9-2.9V14.53a2.9,2.9,0,0,1,2.9-2.9h2.14a2.9,2.9,0,0,1,2.9,2.9Zm-1.67-17.6a1.23,1.23,0,0,0-1.23-1.23H33.41a1.23,1.23,0,0,0-1.23,1.23v17.6a1.23,1.23,0,0,0,1.23,1.23h2.14a1.23,1.23,0,0,0,1.23-1.23Z"/></svg>