<svg id="Layer_1" data-name="Layer 1" xmlns="http://www.w3.org/2000/svg" viewBox="0 0 50 50"><defs><style>.cls-1{fill:#d696a4;}.cls-2{fill:#fff;}</style></defs><circle class="cls-1" cx="25" cy="25" r="25"/><path class="cls-2" d="M12.85,37.88a4.62,4.62,0,1,1,4.61-4.62A4.62,4.62,0,0,1,12.85,37.88Zm0-7.29a2.67,2.67,0,1,0,2.67,2.67A2.68,2.68,0,0,0,12.85,30.59Z"/><path class="cls-2" d="M20.14,25.24a4.62,4.62,0,1,1,4.61-4.61A4.62,4.62,0,0,1,20.14,25.24Zm0-7.28a2.67,2.67,0,1,0,2.67,2.67A2.67,2.67,0,0,0,20.14,18Z"/><path class="cls-2" d="M31.8,36.9a4.61,4.61,0,1,1,4.62-4.61A4.62,4.62,0,0,1,31.8,36.9Zm0-7.28a2.67,2.67,0,1,0,2.67,2.67A2.68,2.68,0,0,0,31.8,29.62Z"/><path class="cls-2" d="M37.15,21.35a4.62,4.62,0,1,1,4.61-4.61A4.62,4.62,0,0,1,37.15,21.35Zm0-7.28a2.67,2.67,0,1,0,2.67,2.67A2.68,2.68,0,0,0,37.15,14.07Z"/><path class="cls-2" d="M36,16.64a.5.5,0,0,1-.27-.08.49.49,0,0,1-.14-.68,2.41,2.41,0,0,1,2-1.07.49.49,0,0,1,.48.49.48.48,0,0,1-.48.48,1.44,1.44,0,0,0-1.2.64A.49.49,0,0,1,36,16.64Z"/><rect class="cls-2" x="13.14" y="26.22" width="7.42" height="1.94" transform="translate(-14.92 30.93) rotate(-64.92)"/><rect class="cls-2" x="25.44" y="21.33" width="1.94" height="9.33" transform="translate(-10.65 25.68) rotate(-44.06)"/><rect class="cls-2" x="30.34" y="23.91" width="8.57" height="1.94" transform="translate(-0.24 49.43) rotate(-70.84)"/></svg>