<svg id="Layer_1" data-name="Layer 1" xmlns="http://www.w3.org/2000/svg" xmlns:xlink="http://www.w3.org/1999/xlink" viewBox="0 0 49 49"><defs><style>.cls-1{fill:none;}.cls-2{clip-path:url(#clip-path);}.cls-3{fill:#4f5d73;}.cls-4{opacity:0.2;}.cls-5{clip-path:url(#clip-path-3);}.cls-6{fill:#231f20;}.cls-7{fill:#e0e0d1;}.cls-8{fill:#76c2af;}.cls-9{fill:#fff;}</style><clipPath id="clip-path" transform="translate(-0.86 -0.84)"><rect class="cls-1" x="0.86" y="0.84" width="49" height="49"/></clipPath><clipPath id="clip-path-3" transform="translate(-0.86 -0.84)"><rect class="cls-1" x="8.86" y="10.84" width="33" height="27"/></clipPath></defs><g class="cls-2"><g id="Group_19" data-name="Group 19"><g id="Group_18" data-name="Group 18"><g class="cls-2"><g id="Group_17" data-name="Group 17"><path id="Path_14" data-name="Path 14" class="cls-3" d="M49.86,25.34A24.5,24.5,0,1,1,25.36.84a24.5,24.5,0,0,1,24.5,24.5" transform="translate(-0.86 -0.84)"/><g id="Group_16" data-name="Group 16" class="cls-4"><g id="Group_15" data-name="Group 15"><g class="cls-5"><g id="Group_14" data-name="Group 14"><path id="Path_15" data-name="Path 15" class="cls-6" d="M14.64,22.28H11.58a3.06,3.06,0,0,0-3.06,3.06v10a3.06,3.06,0,0,0,3.06,3.06h6.13v-13a3.07,3.07,0,0,0-3.07-3.06" transform="translate(-0.86 -0.84)"/><path id="Path_16" data-name="Path 16" class="cls-6" d="M26.89,10.8H23.83a3.06,3.06,0,0,0-3.06,3.06v24.5H30V13.86a3.07,3.07,0,0,0-3.07-3.06" transform="translate(-0.86 -0.84)"/><path id="Path_17" data-name="Path 17" class="cls-6" d="M39.14,26.11H36.08A3.06,3.06,0,0,0,33,29.17v9.19h6.12a3.07,3.07,0,0,0,3.07-3.06V29.17a3.07,3.07,0,0,0-3.07-3.06" transform="translate(-0.86 -0.84)"/></g></g></g></g><path id="Path_18" data-name="Path 18" class="cls-7" d="M14.64,20.75H11.58a3.06,3.06,0,0,0-3.06,3.06v10a3.06,3.06,0,0,0,3.06,3.07h6.13v-13a3.07,3.07,0,0,0-3.07-3.06" transform="translate(-0.86 -0.84)"/><path id="Path_19" data-name="Path 19" class="cls-8" d="M26.89,9.27H23.83a3.06,3.06,0,0,0-3.06,3.06v24.5H30V12.33a3.07,3.07,0,0,0-3.07-3.06" transform="translate(-0.86 -0.84)"/><path id="Path_20" data-name="Path 20" class="cls-9" d="M39.14,24.58H36.08A3.06,3.06,0,0,0,33,27.64v9.19h6.12a3.07,3.07,0,0,0,3.07-3.06V27.64a3.07,3.07,0,0,0-3.07-3.06" transform="translate(-0.86 -0.84)"/></g></g></g></g></g></svg>