<svg id="Layer_1" data-name="Layer 1" xmlns="http://www.w3.org/2000/svg" viewBox="0 0 50 50"><defs><style>.cls-1{fill:#6badc9;}.cls-2{fill:#fff;}</style></defs><circle class="cls-1" cx="25" cy="25" r="25"/><path class="cls-2" d="M19.16,32.34a.44.44,0,0,1-.41-.27,1.6,1.6,0,0,1-.11-.39l-.07-.31a.45.45,0,0,1,.87-.21c0,.15.06.25.07.33a1.13,1.13,0,0,0,.06.22.45.45,0,0,1-.23.59A.39.39,0,0,1,19.16,32.34Z"/><path class="cls-2" d="M24.3,36.53h-.06a6.74,6.74,0,0,1-4.8-3.08.44.44,0,0,1,.14-.62.45.45,0,0,1,.62.14,5.85,5.85,0,0,0,4.16,2.67.45.45,0,0,1-.06.9Z"/><path class="cls-2" d="M25,39.71a9.66,9.66,0,0,1-9.65-9.65c0-3.43,5-14.59,6.27-17.14.85-1.69,2-2.63,3.34-2.63.75,0,2.18.34,3.34,2.63,1.34,2.65,6.35,13.67,6.35,17.14A9.66,9.66,0,0,1,25,39.71Zm0-27.62c-.57,0-1.22.61-1.73,1.64-1.57,3.11-6.08,13.56-6.08,16.33a7.85,7.85,0,0,0,15.7,0c0-2.72-4.37-12.81-6.15-16.33C26.17,12.69,25.53,12.09,25,12.09Z"/></svg>