<svg id="Layer_1" data-name="Layer 1" xmlns="http://www.w3.org/2000/svg" xmlns:xlink="http://www.w3.org/1999/xlink" viewBox="0 0 48.84 48.84"><defs><style>.cls-1{fill:none;}.cls-2{clip-path:url(#clip-path);}.cls-3{clip-path:url(#clip-path-2);}.cls-4{fill:#e0995e;}.cls-5{opacity:0.2;}.cls-6{clip-path:url(#clip-path-4);}.cls-7{fill:#231f20;}.cls-8{clip-path:url(#clip-path-5);}.cls-9{clip-path:url(#clip-path-6);}.cls-10{fill:#e0e0d1;}.cls-11{fill:#fff;}</style><clipPath id="clip-path" transform="translate(-1.1 -0.08)"><rect class="cls-1" width="49" height="49"/></clipPath><clipPath id="clip-path-2" transform="translate(-1.1 -0.08)"><rect class="cls-1" x="0.78" y="-0.23" width="49" height="49"/></clipPath><clipPath id="clip-path-4" transform="translate(-1.1 -0.08)"><rect class="cls-1" x="11.78" y="12.77" width="9" height="27"/></clipPath><clipPath id="clip-path-5" transform="translate(-1.1 -0.08)"><rect class="cls-1" x="20.78" y="12.77" width="9" height="27"/></clipPath><clipPath id="clip-path-6" transform="translate(-1.1 -0.08)"><rect class="cls-1" x="29.78" y="12.77" width="10" height="27"/></clipPath></defs><g class="cls-2"><g class="cls-3"><g id="Group_83" data-name="Group 83"><g id="Group_82" data-name="Group 82"><g class="cls-3"><g id="Group_81" data-name="Group 81"><path id="Path_45" data-name="Path 45" class="cls-4" d="M49.94,24.5A24.42,24.42,0,1,1,25.52.08,24.42,24.42,0,0,1,49.94,24.5h0" transform="translate(-1.1 -0.08)"/><g id="Group_74" data-name="Group 74" class="cls-5"><g id="Group_73" data-name="Group 73"><g class="cls-6"><g id="Group_72" data-name="Group 72"><path id="Path_46" data-name="Path 46" class="cls-7" d="M20.94,39.76l-9.16-3V12.29l9.16,3.05Z" transform="translate(-1.1 -0.08)"/></g></g></g></g><g id="Group_77" data-name="Group 77" class="cls-5"><g id="Group_76" data-name="Group 76"><g class="cls-8"><g id="Group_75" data-name="Group 75"><path id="Path_47" data-name="Path 47" class="cls-7" d="M30.1,36.71l-9.16,3V15.34l9.16-3.05Z" transform="translate(-1.1 -0.08)"/></g></g></g></g><g id="Group_80" data-name="Group 80" class="cls-5"><g id="Group_79" data-name="Group 79"><g class="cls-9"><g id="Group_78" data-name="Group 78"><path id="Path_48" data-name="Path 48" class="cls-7" d="M39.26,39.76l-9.16-3V12.29l9.16,3.05Z" transform="translate(-1.1 -0.08)"/></g></g></g></g><path id="Path_49" data-name="Path 49" class="cls-10" d="M20.94,38.24l-9.16-3.05V10.77l9.16,3.05Z" transform="translate(-1.1 -0.08)"/><path id="Path_50" data-name="Path 50" class="cls-11" d="M30.1,35.19l-9.16,3.05V13.82l9.16-3.05Z" transform="translate(-1.1 -0.08)"/><path id="Path_51" data-name="Path 51" class="cls-10" d="M39.26,38.24,30.1,35.19V10.77l9.16,3.05Z" transform="translate(-1.1 -0.08)"/></g></g></g></g></g></g></svg>