<svg id="Layer_1" data-name="Layer 1" xmlns="http://www.w3.org/2000/svg" viewBox="0 0 50 50"><defs><style>.cls-1{fill:#c8896e;}.cls-2{fill:#f2f2f2;}</style></defs><circle class="cls-1" cx="25" cy="25" r="25"/><path class="cls-2" d="M33.16,18.82V19A8.85,8.85,0,0,1,33,20.64l3.79.75V39.24l-6.35-1.9V26a17.91,17.91,0,0,1-1.81,2v9.4L21.37,41V24.2l.48-.24a12.38,12.38,0,0,1-.75-1.65l-.64.32-9.07-4.54V39l9.07,4.53L29.54,39l9.07,2.72V19.91ZM13.21,21l6.35,3.17V41l-6.35-3.17Z"/><path class="cls-2" d="M25.3,16.31a2.92,2.92,0,0,1-1.22-5.72h0a2.92,2.92,0,0,1,1.22,5.72Zm-.95-4.47a1.63,1.63,0,0,0-1,.71A1.65,1.65,0,0,0,25,15.07a1.68,1.68,0,0,0,1-.72,1.66,1.66,0,0,0-.49-2.28A1.6,1.6,0,0,0,24.35,11.84Z"/><path class="cls-2" d="M28.67,11.93a.32.32,0,0,1-.35-.17c-.05-.1-.08-.17-.1-.22a.83.83,0,0,0-.07-.14.32.32,0,0,1,.07-.45.32.32,0,0,1,.45.08,1.91,1.91,0,0,1,.13.25l.09.2a.32.32,0,0,1-.15.43Z"/><path class="cls-2" d="M27.82,10.71a.3.3,0,0,1-.29-.09,4.15,4.15,0,0,0-3.28-1.23.32.32,0,0,1-.34-.3.32.32,0,0,1,.29-.34A4.81,4.81,0,0,1,28,10.18a.31.31,0,0,1,0,.45A.35.35,0,0,1,27.82,10.71Z"/><path class="cls-2" d="M27.58,27c-.52.11-1.57.08-2.71-1.33-1.32-1.64-6.41-8.53-6.92-10.94a6.83,6.83,0,1,1,13.36-2.84c.51,2.37-1.3,10.84-1.81,12.79A2.83,2.83,0,0,1,27.58,27ZM23.47,7.9a5.57,5.57,0,0,0-4.28,6.6c.4,1.89,4.92,8.23,6.67,10.4.52.65,1.05,1,1.45.88s.75-.6,1-1.39c.62-2.39,2.21-10.29,1.8-12.21A5.57,5.57,0,0,0,23.47,7.9Z"/></svg>