<svg id="Layer_1" data-name="Layer 1" xmlns="http://www.w3.org/2000/svg" xmlns:xlink="http://www.w3.org/1999/xlink" viewBox="0 0 48.55 48.55"><defs><style>.cls-1{fill:none;}.cls-2{clip-path:url(#clip-path);}.cls-3{fill:#e0e0d1;}.cls-4{opacity:0.2;}.cls-5{clip-path:url(#clip-path-3);}.cls-6{fill:#231f20;}.cls-7{fill:#4f5d73;}.cls-8{clip-path:url(#clip-path-4);}.cls-9{fill:#76c2af;}.cls-10{clip-path:url(#clip-path-5);}.cls-11{fill:#c75c5c;}</style><clipPath id="clip-path" transform="translate(-0.36 -0.34)"><rect class="cls-1" x="0.36" y="0.34" width="48.55" height="48.55"/></clipPath><clipPath id="clip-path-3" transform="translate(-0.36 -0.34)"><rect class="cls-1" x="27.55" y="9.08" width="14.56" height="14.56"/></clipPath><clipPath id="clip-path-4" transform="translate(-0.36 -0.34)"><rect class="cls-1" x="7.19" y="10.2" width="27.9" height="33.38"/></clipPath><clipPath id="clip-path-5" transform="translate(-0.36 -0.34)"><rect class="cls-1" x="23.88" y="25.38" width="16.69" height="13.87"/></clipPath></defs><g class="cls-2"><g id="Group_32" data-name="Group 32"><g id="Group_31" data-name="Group 31"><g class="cls-2"><g id="Group_30" data-name="Group 30"><path id="Path_21" data-name="Path 21" class="cls-3" d="M48.91,24.62A24.28,24.28,0,1,1,24.64.34,24.28,24.28,0,0,1,48.91,24.62" transform="translate(-0.36 -0.34)"/><g id="Group_23" data-name="Group 23" class="cls-4"><g id="Group_22" data-name="Group 22"><g class="cls-5"><g id="Group_21" data-name="Group 21"><path id="Path_22" data-name="Path 22" class="cls-6" d="M42.08,23.86A15.17,15.17,0,0,0,26.91,8.69V23.86Z" transform="translate(-0.36 -0.34)"/></g></g></g></g><path id="Path_23" data-name="Path 23" class="cls-7" d="M42.08,22.34A15.17,15.17,0,0,0,26.91,7.17V22.34Z" transform="translate(-0.36 -0.34)"/><g id="Group_26" data-name="Group 26" class="cls-4"><g id="Group_25" data-name="Group 25"><g class="cls-8"><g id="Group_24" data-name="Group 24"><path id="Path_24" data-name="Path 24" class="cls-6" d="M23.88,10.2A16.69,16.69,0,1,0,35.09,39.25L23.88,26.89Z" transform="translate(-0.36 -0.34)"/></g></g></g></g><path id="Path_25" data-name="Path 25" class="cls-9" d="M23.88,8.69a16.69,16.69,0,1,0,11.21,29L23.88,25.38Z" transform="translate(-0.36 -0.34)"/><g id="Group_29" data-name="Group 29" class="cls-4"><g id="Group_28" data-name="Group 28"><g class="cls-10"><g id="Group_27" data-name="Group 27"><path id="Path_26" data-name="Path 26" class="cls-6" d="M40.57,25.38H23.88v1.51L35.09,39.25c3.37-3,5.48-9,5.48-13.87" transform="translate(-0.36 -0.34)"/></g></g></g></g><path id="Path_27" data-name="Path 27" class="cls-11" d="M40.57,25.38H23.88L35.09,37.73a16.67,16.67,0,0,0,5.48-12.35" transform="translate(-0.36 -0.34)"/></g></g></g></g></g></svg>