<?xml version="1.0" encoding="utf-8"?>
<!-- Generator: Adobe Illustrator 25.0.0, SVG Export Plug-In . SVG Version: 6.00 Build 0)  -->
<svg version="1.1" id="Layer_1" xmlns="http://www.w3.org/2000/svg" xmlns:xlink="http://www.w3.org/1999/xlink" x="0px" y="0px"
	 viewBox="0 0 50 50" style="enable-background:new 0 0 50 50;" xml:space="preserve">
<style type="text/css">
	.st0{fill:#7092A5;}
	.st1{opacity:0.33;fill:#6988B0;}
	.st2{opacity:0.42;fill:#4D4D62;}
	.st3{fill:#F2F2F2;}
	.st4{fill:none;}
</style>
<circle class="st0" cx="25" cy="25" r="25"/>
<path class="st1" d="M13.7,13.7L25,24.9l11-11.3c0,0-3.9-4.9-10.7-4.6C18.6,9.3,13.7,13.7,13.7,13.7z"/>
<path class="st2" d="M25.6,24.7c3.4-3.5,6.9-7,10.3-10.6c0,0,5.9,5.6,4.8,10.4L25.9,25L25.6,24.7z"/>
<g>
	<path class="st3" d="M12.3,26.5c-0.3,0-0.5-0.2-0.5-0.5c0-0.3,0-0.7,0-1c0-0.3,0.2-0.5,0.5-0.5c0.3,0,0.5,0.2,0.5,0.5c0,0,0,0,0,0
		c0,0.3,0,0.6,0,0.9C12.8,26.3,12.6,26.5,12.3,26.5L12.3,26.5z"/>
	<path class="st3" d="M17,35c-0.1,0-0.2,0-0.3-0.1c-2.1-1.5-3.6-3.7-4.4-6.2c-0.1-0.3,0-0.6,0.2-0.7s0.6,0,0.7,0.2c0,0,0,0.1,0,0.1
		c0.7,2.3,2.1,4.2,4,5.6c0.2,0.2,0.3,0.5,0.1,0.7C17.3,34.9,17.2,35,17,35z"/>
	<g>
		<path class="st4" d="M14.9,14.1L25,24.2L34.9,14c-2.6-2.4-6.1-3.9-9.9-3.9C21.1,10.1,17.5,11.6,14.9,14.1z"/>
		<path class="st4" d="M24.9,25.6L24.9,25.6c-0.1,0-0.2-0.1-0.3-0.2L14.1,14.9c-2.5,2.7-4,6.2-4,10.1c0,8.2,6.7,14.9,14.9,14.9
			c7.8,0,14.3-6.1,14.9-13.9c0-0.3,0-0.6,0-1c0-4-1.6-7.6-4.1-10.3L25.3,25.4C25.2,25.5,25.1,25.6,24.9,25.6z"/>
		<path class="st3" d="M25,10.1c3.8,0,7.3,1.5,9.9,3.9l1.5-1.5C33.4,9.7,29.4,8,25,8c-4.5,0-8.6,1.8-11.6,4.6l1.5,1.5
			C17.5,11.6,21.1,10.1,25,10.1z"/>
		<path class="st3" d="M14.9,14.1c-0.3,0.2-0.5,0.5-0.8,0.7l10.5,10.5c0.1,0.1,0.2,0.2,0.4,0.2l-0.1,0c0.1,0,0.3-0.1,0.4-0.2
			l10.4-10.7c-0.2-0.3-0.5-0.5-0.8-0.7L25,24.2L14.9,14.1z"/>
		<path class="st3" d="M14.9,14.1c-0.3,0.2-0.5,0.5-0.8,0.7l10.5,10.5c0.1,0.1,0.2,0.2,0.4,0.2l-0.1,0c0.1,0,0.3-0.1,0.4-0.2
			l10.4-10.7c-0.2-0.3-0.5-0.5-0.8-0.7L25,24.2L14.9,14.1z"/>
		<path class="st3" d="M14.9,14.1l-1.5-1.5c-0.3,0.2-0.5,0.5-0.8,0.7l1.5,1.5C14.4,14.6,14.6,14.4,14.9,14.1z"/>
		<path class="st3" d="M36.4,12.5L34.9,14c0.3,0.2,0.5,0.5,0.8,0.7l1.5-1.5C37,12.9,36.7,12.7,36.4,12.5z"/>
		<path class="st3" d="M36.4,12.5L34.9,14c0.3,0.2,0.5,0.5,0.8,0.7l1.5-1.5C37,12.9,36.7,12.7,36.4,12.5z"/>
	</g>
	<g>
		<path class="st3" d="M39.8,26c-0.5,7.8-7,13.9-14.9,13.9c-8.2,0-14.9-6.7-14.9-14.9c0-3.9,1.5-7.5,4-10.1l-1.5-1.5
			C9.8,16.4,8,20.5,8,25c0,9.4,7.6,17,17,17c9,0,16.4-6.9,17-15.8c0-0.3,0-0.6,0-0.9l-2.2,0C39.8,25.5,39.8,25.8,39.8,26z"/>
		<path class="st3" d="M37.2,13.2l-1.5,1.5c2.4,2.5,3.9,5.8,4.1,9.5l2.2,0C41.7,19.9,40,16,37.2,13.2z"/>
		<path class="st3" d="M39.8,24.2L25,24.5c-0.3,0-0.5,0.2-0.5,0.5c0,0.3,0.2,0.5,0.5,0.5l14.8-0.3c0-0.1,0-0.2,0-0.3
			C39.8,24.7,39.8,24.5,39.8,24.2z"/>
		<path class="st3" d="M42,24.2l-2.2,0c0,0.3,0,0.5,0,0.8c0,0.1,0,0.2,0,0.3l2.2,0c0-0.1,0-0.1,0-0.2C42,24.7,42,24.4,42,24.2z"/>
	</g>
</g>
</svg>
