<svg id="Layer_1" data-name="Layer 1" xmlns="http://www.w3.org/2000/svg" viewBox="0 0 50 50"><defs><style>.cls-1{fill:#7092a5;}.cls-2{fill:#f2f2f2;}</style></defs><circle class="cls-1" cx="25" cy="25" r="25"/><path class="cls-2" d="M25,42A17,17,0,1,1,42,25c0,.42,0,.8,0,1.16A17,17,0,0,1,25,42Zm0-31.88A14.88,14.88,0,1,0,39.84,26c0-.32,0-.64,0-1A14.89,14.89,0,0,0,25,10.12Z"/><path class="cls-2" d="M12.29,26.52a.53.53,0,0,1-.53-.49c0-.34,0-.69,0-1a.53.53,0,1,1,1.06,0c0,.31,0,.63,0,.94a.54.54,0,0,1-.49.57Z"/><path class="cls-2" d="M17,35a.5.5,0,0,1-.31-.1,12.3,12.3,0,0,1-4.42-6.17.53.53,0,1,1,1-.32,11.27,11.27,0,0,0,4,5.64.54.54,0,0,1,.11.74A.54.54,0,0,1,17,35Z"/><path class="cls-2" d="M25,25.53a.52.52,0,0,1-.37-.16L13.44,14.19a.54.54,0,0,1,0-.75.53.53,0,0,1,.75,0L25,24.24,35.57,13.06a.53.53,0,0,1,.75,0,.53.53,0,0,1,0,.75l-11,11.58a.52.52,0,0,1-.38.17Z"/><path class="cls-2" d="M25,25.53a.53.53,0,0,1,0-1.06L40.34,24a.53.53,0,0,1,0,1.06L25,25.53Z"/></svg>