<svg id="Layer_1" data-name="Layer 1" xmlns="http://www.w3.org/2000/svg" xmlns:xlink="http://www.w3.org/1999/xlink" viewBox="0 0 49 49"><defs><style>.cls-1{fill:none;}.cls-2{clip-path:url(#clip-path);}.cls-3{fill:#77b3d4;}.cls-4{opacity:0.2;}.cls-5{clip-path:url(#clip-path-3);}.cls-6{fill:#231f20;}.cls-7{fill:#fff;}</style><clipPath id="clip-path" transform="translate(-0.86 -0.84)"><rect class="cls-1" x="0.86" y="0.84" width="49" height="49"/></clipPath><clipPath id="clip-path-3" transform="translate(-0.86 -0.84)"><rect class="cls-1" x="11.2" y="11.56" width="28.33" height="30.63"/></clipPath></defs><g id="Group_69" data-name="Group 69"><g id="Group_53" data-name="Group 53"><g class="cls-2"><g id="Group_52" data-name="Group 52"><g id="Group_51" data-name="Group 51"><g class="cls-2"><g id="Group_50" data-name="Group 50"><path id="Path_35" data-name="Path 35" class="cls-3" d="M49.86,25.34A24.5,24.5,0,1,1,25.36.84a24.5,24.5,0,0,1,24.5,24.5" transform="translate(-0.86 -0.84)"/><g id="Group_49" data-name="Group 49" class="cls-4"><g id="Group_48" data-name="Group 48"><g class="cls-5"><g id="Group_47" data-name="Group 47"><path id="Path_36" data-name="Path 36" class="cls-6" d="M38.78,26.76,27.86,12.87a3,3,0,0,0-4.23-.77,2.93,2.93,0,0,0-.76.77L11.94,26.76c-1.37,1.75-.79,3.18,1.3,3.18h6v9.18a3.06,3.06,0,0,0,3.06,3.07h6.12a3.07,3.07,0,0,0,3.07-3.06V29.94h6c2.08,0,2.66-1.43,1.29-3.18" transform="translate(-0.86 -0.84)"/></g></g></g></g><rect id="Rectangle_24" data-name="Rectangle 24" class="cls-7" x="18" y="15" width="13" height="25" rx="4"/><path id="Path_37" data-name="Path 37" class="cls-7" d="M13.24,28.41c-2.09,0-2.67-1.43-1.3-3.18L22.87,11.34a3,3,0,0,1,4.22-.77,3.13,3.13,0,0,1,.77.77L38.78,25.23c1.38,1.75.79,3.18-1.29,3.18Z" transform="translate(-0.86 -0.84)"/></g></g></g></g></g></g></g></svg>